<svg xmlns="http://www.w3.org/2000/svg" class="icon icon-tabler icon-tabler-calendar" width="56" height="56" viewBox="0 0 24 24" stroke-width="2" stroke="currentColor" fill="none" stroke-linecap="round" stroke-linejoin="round">
  <path stroke="none" d="M0 0h24v24H0z"/>
  <path d="M6 5h12a2 2 0 0 1 2 2v12a2 2 0 0 1 -2 2h-12a2 2 0 0 1 -2 -2v-12a2 2 0 0 1 2 -2z" />
  <path d="M15 3v4" />
  <path d="M9 3v4" />
  <path d="M4 11h16" />
  <path d="M8 15h.01" />
  <path d="M12 15h.01" />
  <path d="M16 15h.01" />
  <path d="M8 18h.01" />
  <path d="M12 18h.01" />
  <path d="M16 18h.01" />
</svg>
